<?xml version="1.0" encoding="UTF-8" standalone="no"?>
<!-- Created with Inkscape (http://www.inkscape.org/) -->

<svg
   xmlns:dc="http://purl.org/dc/elements/1.1/"
   xmlns:cc="http://creativecommons.org/ns#"
   xmlns:rdf="http://www.w3.org/1999/02/22-rdf-syntax-ns#"
   xmlns:svg="http://www.w3.org/2000/svg"
   xmlns="http://www.w3.org/2000/svg"
   xmlns:sodipodi="http://sodipodi.sourceforge.net/DTD/sodipodi-0.dtd"
   xmlns:inkscape="http://www.inkscape.org/namespaces/inkscape"
   width="481.42856"
   height="515.71429"
   id="svg2"
   version="1.1"
   inkscape:version="0.48.3.1 r9886"
   inkscape:export-filename="/home/heydon/Dropbox/SEAP/ESA/src/images/tea.png"
   inkscape:export-xdpi="149.55956"
   inkscape:export-ydpi="149.55956"
   sodipodi:docname="tea.svg">
  <defs
     id="defs4" />
  <sodipodi:namedview
     id="base"
     pagecolor="#ffffff"
     bordercolor="#666666"
     borderopacity="1.0"
     inkscape:pageopacity="0.0"
     inkscape:pageshadow="2"
     inkscape:zoom="0.7"
     inkscape:cx="239.79099"
     inkscape:cy="309.50706"
     inkscape:document-units="px"
     inkscape:current-layer="layer1"
     showgrid="false"
     fit-margin-top="0"
     fit-margin-left="0"
     fit-margin-right="0"
     fit-margin-bottom="0"
     inkscape:window-width="1316"
     inkscape:window-height="744"
     inkscape:window-x="50"
     inkscape:window-y="24"
     inkscape:window-maximized="1" />
  <metadata
     id="metadata7">
    <rdf:RDF>
      <cc:Work
         rdf:about="">
        <dc:format>image/svg+xml</dc:format>
        <dc:type
           rdf:resource="http://purl.org/dc/dcmitype/StillImage" />
        <dc:title></dc:title>
      </cc:Work>
    </rdf:RDF>
  </metadata>
  <g
     inkscape:label="Layer 1"
     inkscape:groupmode="layer"
     id="layer1"
     transform="translate(-104.28571,-293.79074)">
    <rect
       style="fill:#dcf0fd;fill-opacity:1;stroke:#ffcf93;stroke-width:0;stroke-linecap:butt;stroke-linejoin:miter;stroke-miterlimit:4;stroke-opacity:1;stroke-dasharray:none;stroke-dashoffset:0"
       id="rect4535"
       width="481.42856"
       height="515.71429"
       x="104.28571"
       y="293.79074" />
    <path
       style="fill:#79bdef;fill-opacity:0.94117647"
       d="m 328.125,301.125 c -8.60914,7.19581 -12.26754,18.2556 -18.53125,27.25 -6.12262,11.12141 -8.52945,26.51656 0.75,36.6875 8.15906,10.03504 19.30181,17.11885 27.59375,27.03125 6.75288,6.06815 13.49351,13.67177 13.59375,23.28125 2.19565,12.40172 1.97982,26.11 -5.4375,36.84375 -5.13298,9.82611 -11.90891,18.6409 -18.84375,27.21875 -4.78235,7.07679 -5.62818,21.03405 4.34375,23.875 -1.23807,-21.61349 18.68093,-26.78784 28.6875,-43.875 6.42086,-11.36815 10.39427,-24.62277 8.03125,-37.71875 -1.06939,-8.15285 -1.89339,-16.58573 -4.9375,-24.25 -7.31335,-12.84234 -20.16906,-20.95765 -29.5625,-32.0625 -18.99285,-14.84874 -14.48282,-48.89329 -4.46875,-64.25 -0.41135,-0.0177 -0.80745,-0.0136 -1.21875,-0.0312 z m -83.84375,1 c -8.60914,7.19581 -12.26754,18.2556 -18.53125,27.25 -6.12262,11.12141 -8.52945,26.51656 0.75,36.6875 8.15906,10.03504 19.30181,17.11885 27.59375,27.03125 6.75288,6.06815 13.49351,13.67177 13.59375,23.28125 2.19565,12.40172 1.97982,26.11 -5.4375,36.84375 -5.13298,9.82611 -11.90891,18.67215 -18.84375,27.25 -4.78235,7.07679 -5.59693,21.03405 4.375,23.875 -1.23807,-21.61349 18.64968,-26.81909 28.65625,-43.90625 6.42086,-11.36815 10.39427,-24.59152 8.03125,-37.6875 -1.06939,-8.15285 -1.89339,-16.58573 -4.9375,-24.25 -7.31335,-12.84234 -20.16906,-20.9889 -29.5625,-32.09375 C 230.9759,351.55751 235.48593,317.54421 245.5,302.1875 c -0.41135,-0.0177 -0.80745,-0.0448 -1.21875,-0.0625 z m 168.6875,1 c -8.60914,7.19581 -12.26754,18.2556 -18.53125,27.25 -6.12262,11.12141 -8.52945,26.51656 0.75,36.6875 8.15906,10.03504 19.30181,17.11885 27.59375,27.03125 6.75288,6.06815 13.49351,13.67177 13.59375,23.28125 2.19565,12.40172 1.97982,26.14125 -5.4375,36.875 -5.13298,9.82611 -11.90891,18.6409 -18.84375,27.21875 -4.78235,7.07679 -5.59693,21.03405 4.375,23.875 -1.23807,-21.61349 18.64968,-26.81909 28.65625,-43.90625 6.42086,-11.36815 10.39427,-24.59152 8.03125,-37.6875 -1.06939,-8.15285 -1.89339,-16.58573 -4.9375,-24.25 -7.31335,-12.84234 -20.13781,-20.95765 -29.53125,-32.0625 -18.99285,-14.84874 -14.48282,-48.89329 -4.46875,-64.25 -0.41135,-0.0177 -0.8387,-0.0448 -1.25,-0.0625 z m -67,213.21875 c -15.26779,0 -30.54384,0.31983 -38.5625,1 -50.35166,4.271 -89.57793,15.83961 -105.09375,30.96875 -6.89286,6.72108 -7.36275,8.27303 -8.78125,29.4375 -6.59713,98.4308 23.46288,173.82074 83.34375,209.0625 17.01168,10.01192 37.68018,16.7252 56.625,18.40625 5.20462,0.46182 10.14375,0.89355 10.96875,0.96875 0.825,0.0752 6.45,-0.31024 12.5,-0.875 27.16347,-2.53564 50.58748,-11.59781 72.21875,-27.90625 7.75723,-5.84841 24.36121,-22.25073 27.71875,-27.375 1.36929,-2.08979 2.60217,-2.6875 5.28125,-2.6875 14.84384,0 56.82562,-14.66762 75.5625,-26.375 29.62666,-18.51165 46.21449,-46.64626 42.625,-72.375 -2.60624,-18.68097 -11.15321,-34.26583 -23.25,-42.34375 -9.52045,-6.35751 -17.61587,-8.3308 -34.15625,-8.375 -7.7,-0.0206 -16.07736,0.31821 -18.59375,0.75 l -4.5625,0.78125 -1.25,-19.71875 c -0.80417,-12.60872 -1.80649,-21.09508 -2.78125,-23.53125 -2.09399,-5.23339 -10.57343,-12.6887 -19.96875,-17.5625 -19.51117,-10.12137 -53.49318,-18.04468 -91.28125,-21.25 -8.01865,-0.68017 -23.29471,-1 -38.5625,-1 z m 3.53125,23.125 c 14.90869,-0.0441 28.74347,0.20156 37.5,0.78125 48.81198,3.2314 80.0055,10.33606 86.0625,19.59375 6.01189,9.18877 -22.81159,18.59076 -72.09375,23.5 -14.60601,1.45498 -80.47097,2.0599 -97.5,0.90625 -38.4081,-2.60201 -70.36023,-8.99888 -81.15625,-16.25 -3.99906,-2.68595 -4.93103,-6.84129 -2.1875,-9.875 5.87995,-6.50185 29.51515,-12.49035 64.34375,-16.34375 12.35226,-1.36664 40.18344,-2.23897 65.03125,-2.3125 z m 125.96875,47.125 c 1.23987,-0.11915 1.22633,2.53729 0.6875,20.3125 -1.40924,46.48888 -10.12735,81.3565 -27.875,111.46875 -18.09698,30.70498 -45.91725,52.71106 -76.53125,60.5625 -11.01928,2.82607 -30.47753,3.96641 -40.78125,2.375 -8.05394,-1.24393 -21.39895,-5.43871 -30.15625,-9.46875 -42.68399,-19.64287 -72.83257,-66.64145 -81.75,-127.5 -2.68306,-18.31101 -4.51268,-52.45195 -3.03125,-56.3125 0.45238,-1.1789 2.42647,-0.71284 10.53125,2.46875 18.00697,7.06876 44.09792,12.75952 73.40625,16 18.72479,2.07032 78.11709,1.76665 96.46875,-0.5 33.75635,-4.16932 53.46169,-8.99715 78.4375,-19.21875 0.23161,-0.0948 0.41663,-0.17048 0.59375,-0.1875 z m 55.1875,34.9375 c 3.96404,-0.0935 7.86344,0.51815 11.9375,1.78125 8.33721,2.58483 13.06415,6.59989 16.96875,14.53125 2.77178,5.63029 3.15625,7.50473 3.15625,14.53125 0,7.22844 -0.36687,8.78336 -3.59375,15.3125 -4.09972,8.29523 -12.79073,18.31752 -21.9375,25.25 -11.47483,8.69695 -27.50027,14.82463 -45.21875,17.34375 -3.85,0.54737 -8.189,1.02035 -9.625,1.03125 l -2.59375,0.0312 3.3125,-8.84375 c 6.64052,-17.67906 11.07954,-35.9042 13.71875,-56.375 1.57396,-12.20829 1.63191,-12.28937 12.78125,-18.21875 7.75962,-4.12667 14.48701,-6.21922 21.09375,-6.375 z"
       id="path3663"
       inkscape:connector-curvature="0" />
  </g>
</svg>
